<svg width="261" height="264" viewBox="0 0 261 264" fill="none" xmlns="http://www.w3.org/2000/svg">
<mask id="path-1-inside-1_0_1" fill="white">
<path d="M182.157 260.892C116.522 289.421 40.1861 259.341 11.6568 193.706C-16.8724 128.07 13.208 51.7348 78.8433 23.2056C144.479 -5.32365 220.814 24.7568 249.343 90.392C277.873 156.027 247.792 232.363 182.157 260.892ZM89.344 47.3637C37.0508 70.0936 13.0851 130.912 35.815 183.205C58.5449 235.498 119.363 259.464 171.656 236.734C223.949 214.004 247.915 153.186 225.185 100.893C202.455 48.5996 141.637 24.6338 89.344 47.3637Z"/>
</mask>
<path d="M182.157 260.892C116.522 289.421 40.1861 259.341 11.6568 193.706C-16.8724 128.07 13.208 51.7348 78.8433 23.2056C144.479 -5.32365 220.814 24.7568 249.343 90.392C277.873 156.027 247.792 232.363 182.157 260.892ZM89.344 47.3637C37.0508 70.0936 13.0851 130.912 35.815 183.205C58.5449 235.498 119.363 259.464 171.656 236.734C223.949 214.004 247.915 153.186 225.185 100.893C202.455 48.5996 141.637 24.6338 89.344 47.3637Z" stroke="#52BBE9" stroke-opacity="0.36" stroke-width="229.693" mask="url(#path-1-inside-1_0_1)"/>
<circle cx="153.815" cy="97.5391" r="98.9617" transform="rotate(66.5072 153.815 97.5391)" stroke="#52BBE9" stroke-opacity="0.55" stroke-width="2.87117"/>
</svg>
