<svg width="539" height="538" viewBox="0 0 539 538" fill="none" xmlns="http://www.w3.org/2000/svg">
<path d="M83.2114 0.0131183C84.906 0.0110907 86.6005 0.00774759 88.2951 0.00321267C92.9236 -0.00539049 97.5518 0.00458801 102.18 0.017755C107.182 0.0286932 112.184 0.0222338 117.186 0.0179705C126.972 0.0123482 136.757 0.02263 146.543 0.0382585C157.937 0.0558192 169.331 0.0572182 180.726 0.0578741C201.05 0.0595606 221.373 0.0753596 241.697 0.0993609C261.425 0.122642 281.154 0.136789 300.882 0.140377C302.706 0.140711 302.706 0.140711 304.568 0.141052C307.018 0.141494 309.468 0.141936 311.918 0.142378C313.731 0.142707 313.731 0.142707 315.58 0.143043C316.786 0.143259 317.991 0.143475 319.233 0.143698C338.031 0.147396 356.829 0.158753 375.627 0.171173C382.443 0.175611 389.259 0.179048 396.076 0.181796C406.881 0.186223 417.686 0.193981 428.492 0.20857C433.43 0.215186 438.368 0.220244 443.306 0.221031C518.734 0.23414 538.454 44.6349 538.399 118.187C538.338 236.407 538 362 535.206 479.943C535.029 481.141 534.852 482.338 534.67 483.572C532.695 497.361 507.699 524.564 490.37 525.545C489.676 525.491 488.983 525.436 488.268 525.381C488.268 526.041 488.268 526.701 488.268 527.381C359.5 528.63 200.468 528.222 73.5378 528.636C71.2298 528.643 68.9222 528.638 66.6142 528.63C65.3311 528.63 64.0481 528.63 62.7262 528.63C1.64394 524.222 1.08642 458.92 1.1731 413.376C1.18013 409.272 1.18344 405.168 1.18691 401.064C1.20053 385.503 1.23279 369.942 1.26808 354.381C1.27114 353.017 1.2742 351.654 1.27725 350.291C1.36338 312.017 1.47615 273.744 1.60744 235.471C1.61843 232.266 1.62942 229.061 1.6404 225.855C1.64312 225.06 1.64585 224.265 1.64866 223.446C1.69364 210.307 1.73405 197.167 1.77274 184.028C1.81309 170.344 1.85714 156.66 1.90496 142.976C1.93147 135.366 1.9564 127.757 1.97716 120.148C2.14507 58.6421 13.1484 -0.361912 83.2114 0.0131183Z" fill="#00B0C0"/>
<path d="M1.00002 393.5C176.983 393.772 352.985 394.07 528.969 393.858C534.698 393.886 534.698 393.886 535.812 395C535.812 482 547.5 537.032 461.907 537.141C344.159 537.291 226.408 537.326 108.659 537.247C18.9807 537.189 -3.5 505.5 1.00002 393.5Z" fill="#FBB248"/>
<path d="M379.268 73.3807C381.917 75.0232 381.917 75.0232 384.268 77.3807C384.889 80.4134 384.889 80.4134 384.883 84.0382C384.888 84.7063 384.894 85.3743 384.9 86.0626C384.913 88.3007 384.89 90.537 384.867 92.775C384.869 94.3801 384.873 95.9851 384.879 97.5902C384.889 101.953 384.868 106.314 384.841 110.676C384.817 115.249 384.82 119.822 384.82 124.395C384.815 132.085 384.791 139.774 384.755 147.464C384.714 156.329 384.696 165.193 384.692 174.058C384.689 183.517 384.67 192.975 384.645 202.434C384.639 205.146 384.636 207.859 384.632 210.571C384.626 214.857 384.61 219.142 384.586 223.427C384.578 224.991 384.574 226.554 384.574 228.118C384.56 250.812 384.56 250.813 380.163 261.189C379.463 262.904 378.853 264.655 378.28 266.416C372.316 284.593 361.688 301.674 347.268 314.381C346.417 315.135 345.566 315.889 344.69 316.666C295.516 357.279 226.258 351.128 183.061 305.025C174.146 294.476 166.099 281.688 162.268 268.381C161.762 266.746 161.254 265.112 160.745 263.478C159.663 259.974 158.586 256.469 157.538 252.955C157.207 251.85 157.207 251.85 156.869 250.723C155.555 245.601 155.14 240.702 155.121 235.422C155.117 234.746 155.114 234.07 155.11 233.373C155.099 231.121 155.095 228.869 155.091 226.617C154.922 182.839 154.692 139.057 154.797 95.2796C154.798 93.7009 154.791 92.1223 154.778 90.5437C154.76 88.3904 154.767 86.2386 154.78 84.0854C154.778 82.8801 154.776 81.6748 154.773 80.433C155.37 76.7545 156.301 75.5755 159.268 73.3807C162.706 72.8182 162.706 72.8182 166.268 73.3807C169.5 75.9287 171.077 77.4281 171.896 81.512C171.898 82.6955 171.899 83.879 171.901 85.0984C171.908 85.7607 171.916 86.423 171.924 87.1054C171.943 89.3175 171.927 91.5279 171.912 93.74C172.112 140.38 172.044 187.022 172.143 233.663C172.142 275.551 203.574 311.285 242.221 323.299C261.709 328.125 283.426 327.16 302.268 320.381C303.898 319.839 303.898 319.839 305.561 319.287C327.89 311.028 346.919 292.169 357.206 271.006C357.559 270.288 357.912 269.571 358.277 268.832C364.291 255.698 365.864 242.607 365.782 228.389C365.788 226.758 365.795 225.127 365.804 223.496C365.819 220.02 365.822 216.544 365.815 213.069C365.731 170.733 365.829 128.391 366.016 86.056C366.017 84.2565 366.017 84.2565 366.018 82.4207C366.261 79.4612 366.643 77.8308 368.268 75.3807C372.141 72.2611 374.536 71.9018 379.268 73.3807Z" fill="#F6B54B"/>
<path d="M329.483 432.701C335.327 436.684 339.033 441.674 341.268 448.381C342.235 458.94 341.723 467.479 335.268 476.381C329.802 482.49 323.644 487.264 315.182 487.814C313.753 487.838 312.323 487.839 310.893 487.818C309.769 487.806 309.769 487.806 308.622 487.793C299.612 487.518 293.592 484.416 286.995 478.318C279.744 470.181 279.402 459.924 279.999 449.546C280.898 442.32 286.001 436.887 291.538 432.56C303.314 424.532 317.573 425.601 329.483 432.701Z" fill="#0B79AD"/>
<path d="M46.2681 427.381C53.6554 427.356 61.0426 427.338 68.4299 427.326C70.9452 427.321 73.4605 427.314 75.9758 427.305C79.5824 427.293 83.1889 427.288 86.7954 427.283C88.4938 427.275 88.4938 427.275 90.2265 427.267C91.7881 427.267 91.7881 427.267 93.3811 427.267C94.3027 427.265 95.2242 427.263 96.1737 427.26C98.2681 427.381 98.2681 427.381 99.2681 428.381C99.3412 430.911 99.3605 433.414 99.3306 435.943C99.3261 436.654 99.3215 437.365 99.3169 438.098C99.3051 439.859 99.2871 441.62 99.2681 443.381C97.1917 441.416 95.9191 439.811 94.3931 437.318C92.0354 434.059 91.0981 433.338 87.2681 432.381C85.8796 432.184 84.4887 432.004 83.0962 431.838C81.8329 431.687 80.5696 431.536 79.2681 431.381C79.335 438.447 79.4247 445.513 79.5305 452.578C79.5638 454.983 79.5918 457.387 79.6145 459.792C79.648 463.245 79.7003 466.698 79.7563 470.15C79.7627 471.228 79.7691 472.307 79.7757 473.418C79.8054 474.919 79.8054 474.919 79.8357 476.45C79.8523 477.773 79.8523 477.773 79.8693 479.122C80.3472 481.829 81.2631 482.588 83.2681 484.381C83.2681 485.041 83.2681 485.701 83.2681 486.381C74.6881 486.381 66.1081 486.381 57.2681 486.381C60.2681 484.381 60.2681 484.381 64.2681 484.381C64.5981 466.891 64.9281 449.401 65.2681 431.381C56.5787 432.021 56.5787 432.021 50.2681 436.381C48.3824 439.481 48.3824 439.481 47.2681 442.381C46.9381 442.381 46.6081 442.381 46.2681 442.381C46.2681 437.431 46.2681 432.481 46.2681 427.381Z" fill="#0B7AAD"/>
<path d="M203.268 427.381C220.428 427.381 237.588 427.381 255.268 427.381C255.268 432.661 255.268 437.941 255.268 443.381C253.944 441.394 252.671 439.372 251.456 437.318C249.051 434.089 248.1 433.339 244.268 432.381C241.628 432.051 238.988 431.721 236.268 431.381C236.598 448.211 236.928 465.041 237.268 482.381C239.578 483.371 241.888 484.361 244.268 485.381C244.268 485.711 244.268 486.041 244.268 486.381C236.018 486.381 227.768 486.381 219.268 486.381C219.928 484.731 220.588 483.081 221.268 481.381C221.589 478.86 221.589 478.86 221.587 476.223C221.607 475.222 221.627 474.222 221.647 473.191C221.664 471.589 221.664 471.589 221.682 469.955C221.701 468.852 221.721 467.749 221.741 466.613C221.8 463.098 221.847 459.583 221.893 456.068C221.931 453.682 221.97 451.296 222.01 448.91C222.106 443.067 222.191 437.224 222.268 431.381C220.672 431.487 219.077 431.608 217.483 431.736C216.151 431.835 216.151 431.835 214.791 431.936C209.204 432.921 206.559 436.993 203.268 441.381C203.268 436.761 203.268 432.141 203.268 427.381Z" fill="#087AAF"/>
<path d="M484.268 426.381C484.598 426.381 484.928 426.381 485.268 426.381C485.268 432.651 485.268 438.921 485.268 445.381C483.268 443.381 483.268 443.381 481.456 440.006C479.562 436.62 477.517 434.574 474.268 432.381C473.67 431.968 473.072 431.556 472.456 431.131C469.05 429.963 465.79 429.823 462.268 430.381C459.179 431.817 459.179 431.817 457.268 434.381C456.267 437.292 456.267 437.292 457.268 440.381C462.13 445.832 468.551 448.801 475.04 451.859C480.86 454.756 485.315 458.474 488.268 464.381C488.809 469.309 488.855 473.228 486.581 477.693C479.303 486.151 479.303 486.151 473.268 487.381C467.112 487.812 462.087 487.546 456.268 485.381C452.118 485.055 450.794 485.03 447.268 487.381C447.268 480.451 447.268 473.521 447.268 466.381C450.017 467.755 450.282 469.346 451.518 472.131C454.246 477.764 457.067 480.212 462.206 483.693C466.439 485.104 470.058 484.945 474.081 483.068C476.94 480.863 478.121 479.117 478.831 475.568C478.162 471.781 476.795 470.356 473.803 468.021C469.91 465.502 465.829 463.355 461.688 461.272C454.593 457.675 449.96 454.038 447.268 446.381C446.561 441.343 447.388 438.14 450.069 433.955C452.6 430.632 454.981 428.732 459.018 427.631C465.695 427.117 470.89 427.113 477.268 429.381C480.518 429.549 480.518 429.549 483.268 429.381C483.598 428.391 483.928 427.401 484.268 426.381Z" fill="#087AAF"/>
<path d="M124.268 428.381C132.188 428.381 140.108 428.381 148.268 428.381C146.288 429.371 146.288 429.371 144.268 430.381C142.091 432.558 143.054 437.645 143.03 440.674C143.022 441.612 143.014 442.551 143.005 443.518C142.991 445.512 142.981 447.505 142.973 449.498C142.956 452.538 142.912 455.577 142.868 458.617C142.858 460.552 142.849 462.488 142.842 464.424C142.825 465.33 142.807 466.237 142.789 467.17C142.808 472.739 143.487 476.001 147.268 480.381C151.523 483.217 155.274 483.012 160.268 482.381C164.92 479.906 166.759 476.29 168.268 471.381C168.671 468.409 168.69 465.485 168.667 462.49C168.671 461.25 168.671 461.25 168.675 459.986C168.677 458.251 168.672 456.517 168.659 454.782C168.643 452.124 168.659 449.468 168.678 446.81C168.676 445.12 168.672 443.43 168.667 441.74C168.673 440.946 168.679 440.152 168.685 439.335C168.683 435.159 168.683 435.159 166.931 431.483C166.382 431.119 165.833 430.755 165.268 430.381C164.278 429.721 163.288 429.061 162.268 428.381C167.548 428.381 172.828 428.381 178.268 428.381C176.618 430.361 174.968 432.341 173.268 434.381C172.562 436.475 172.562 436.475 172.672 438.515C172.665 439.269 172.659 440.024 172.652 440.801C172.668 441.598 172.685 442.395 172.702 443.217C172.693 444.474 172.693 444.474 172.685 445.757C172.668 448.423 172.684 451.089 172.706 453.756C172.722 456.415 172.731 459.074 172.716 461.733C172.707 463.383 172.715 465.033 172.745 466.682C172.713 473.532 170.781 478.868 165.893 483.756C158.817 488.136 151.356 488.12 143.268 487.381C137.301 485.747 133.718 482.398 130.268 477.381C129.366 474.585 129.14 472.045 129.126 469.119C129.119 468.288 129.112 467.457 129.105 466.601C129.101 465.712 129.097 464.824 129.092 463.908C129.069 462.021 129.045 460.133 129.02 458.246C128.985 455.274 128.955 452.303 128.942 449.332C128.927 446.461 128.887 443.591 128.842 440.72C128.844 439.83 128.846 438.939 128.848 438.021C128.832 437.194 128.815 436.366 128.798 435.513C128.792 434.786 128.786 434.058 128.78 433.309C128.32 430.775 128.32 430.775 124.268 428.381Z" fill="#0779B1"/>
<path d="M315.505 429.297C321.164 432.28 324.487 437.344 326.505 443.297C327.06 447.271 327.065 451.165 327.005 455.172C327.021 456.197 327.036 457.221 327.052 458.277C327.01 466.642 325.443 473.772 320.005 480.297C316.734 482.914 314.802 484.128 310.63 484.672C305.489 484.055 302.619 481.601 299.318 477.734C293.704 467.088 292.676 454.533 295.568 442.859C298.86 433.394 305.397 427.59 315.505 429.297Z" fill="#F9B44C"/>
<path d="M364 426.448C369.247 426.348 374.493 426.276 379.741 426.228C381.523 426.208 383.304 426.181 385.086 426.146C404.649 425.773 404.649 425.773 411 430.448C415.157 434.812 416.523 438.053 416.484 443.991C415.59 448.526 412.441 451.531 409 454.448C406.766 455.67 406.766 455.67 405 456.448C406.301 460.034 407.851 462.888 410.117 465.952C410.724 466.775 411.331 467.598 411.957 468.446C412.59 469.292 413.223 470.138 413.875 471.01C414.5 471.86 415.125 472.711 415.77 473.586C418.657 477.478 421.507 481.075 425 484.448C422.396 484.475 419.792 484.495 417.188 484.51C416.45 484.519 415.712 484.527 414.951 484.536C411.701 484.55 409.106 484.483 406 483.448C404.545 481.793 404.545 481.793 403.039 479.659C402.208 478.493 402.208 478.493 401.359 477.303C400.787 476.485 400.215 475.666 399.625 474.823C399.06 474.027 398.496 473.232 397.914 472.413C393.332 465.954 393.332 465.954 391.612 463.335C388.817 459.105 388.817 459.105 384 457.448C384.33 465.038 384.66 472.628 385 480.448C387.31 481.438 389.62 482.428 392 483.448C392 483.778 392 484.108 392 484.448C382.1 484.448 372.2 484.448 362 484.448C365 482.448 365 482.448 369 482.448C369.33 464.628 369.66 446.808 370 428.448C367.03 427.953 367.03 427.953 364 427.448C364 427.118 364 426.788 364 426.448Z" fill="#0B7AAE"/>
<path d="M385 427C395.556 427 395.556 427 401 431C403.804 435.383 403.523 439.969 403 445C401.719 448.17 400.48 449.578 397.938 451.812C395 453 395 453 385 453C385 444.42 385 435.84 385 427Z" fill="#FAB54A"/>
</svg>
