<svg width="340" height="355" viewBox="0 0 340 355" fill="none" xmlns="http://www.w3.org/2000/svg">
<g opacity="0.1">
<path d="M-96.6573 98.0721C-74.3365 172.043 2.53879 214.244 75.0279 192.37C147.517 170.497 188.218 92.8164 165.897 18.8459C143.576 -55.1247 66.701 -97.3259 -5.78804 -75.4522C-78.2771 -53.5785 -118.978 24.1016 -96.6573 98.0721Z" stroke="#4E74F9" stroke-width="1.5"/>
<circle cx="202.378" cy="202.378" r="201.628" transform="matrix(-0.957363 0.288886 0.288886 0.957363 170.193 -194.111)" stroke="#4E74F9" stroke-width="1.5"/>
<path d="M-191.607 126.909C-153.798 252.205 -21.4373 323.088 104.032 285.228C229.5 247.367 300.561 115.101 262.753 -10.1948C224.944 -135.491 92.5833 -206.374 -32.8856 -168.513C-158.354 -130.653 -229.415 1.6128 -191.607 126.909Z" stroke="#4E74F9" stroke-width="1.5"/>
</g>
<circle cx="328" cy="227" r="12" fill="#FFD037"/>
<circle cx="47" cy="257" r="12" fill="#2CB4EC"/>
</svg>
