<svg width="313" height="650" viewBox="0 0 313 650" fill="none" xmlns="http://www.w3.org/2000/svg">
<g clip-path="url(#clip0_0_1)">
<path d="M277.202 536.844C276.979 532.563 276.371 528.312 276.08 524.036C276.041 523.469 275.497 522.9 274.882 523.124C273.388 523.668 261.015 528.243 261.259 530.874C260.921 530.983 260.621 531.27 260.587 531.668C260.313 534.949 261.034 538.458 261.255 541.739C261.505 545.44 261.49 549.102 260.807 552.757C260.707 553.292 261.047 553.919 261.665 553.884C261.703 553.882 261.74 553.879 261.777 553.877C261.858 553.872 261.938 553.853 262.016 553.827C262.224 554.066 262.585 554.198 262.911 554.039C265.607 552.717 268.525 551.852 271.301 550.713C272.485 550.227 274.756 549.479 275.599 548.164C275.924 548.123 276.25 547.931 276.387 547.604C277.739 544.394 277.378 540.234 277.202 536.844ZM269.721 530.318C270.459 529.935 271.952 529.256 272.942 528.375C273.108 530.639 273.255 532.905 273.285 535.176C273.286 535.29 273.284 535.404 273.285 535.518C272.781 535.684 272.337 536.069 271.853 536.328C270.649 536.974 269.362 537.477 268.108 538.017C267.117 538.445 264.971 539.155 263.699 540.182C263.661 539.392 263.613 538.601 263.558 537.813C263.469 536.545 263.542 535.04 263.395 533.652C265.384 532.314 267.592 531.425 269.721 530.318ZM275.172 536.325C275.174 535.942 275.178 535.559 275.177 535.176C275.177 535.113 275.174 535.047 275.174 534.984C275.2 535.31 275.231 535.635 275.255 535.961C275.264 536.088 275.269 536.213 275.276 536.34C275.242 536.333 275.207 536.329 275.172 536.325Z" fill="#E0E0E0"/>
<path d="M268.399 517.001C266.098 517.101 263.834 518.903 261.946 520.083C259.248 521.771 256.62 523.34 253.657 524.515C253.473 524.538 253.327 524.624 253.219 524.75C252.948 524.843 252.728 525.045 252.684 525.359C252.349 527.783 250.586 542.938 251.724 548.16C250.574 549.935 252.312 552.135 253.917 553.149C254.84 553.732 256.024 554.184 257.131 554.101C257.488 554.073 257.855 553.951 258.149 553.755C258.224 553.848 258.304 553.938 258.393 554.021C258.656 554.272 259.14 554.177 259.23 553.8C259.706 551.8 259.177 549.379 259.319 547.275C259.462 545.15 259.481 543.018 259.602 540.891C259.726 538.712 259.87 536.534 259.898 534.351C259.912 533.305 260.101 531.738 259.22 530.971C259.206 530.959 259.19 530.952 259.176 530.942C259.271 530.515 259.061 530.021 258.523 530.058C256.167 530.219 255.047 528.126 254.61 526.065C257.078 525.387 259.327 523.94 261.474 522.603C263.812 521.148 266.583 519.995 268.778 518.397C269.332 517.993 269.21 516.965 268.399 517.001Z" fill="#E0E0E0"/>
<path d="M272.833 521.852C272.305 521.682 271.776 521.978 271.227 521.863C270.786 521.771 270.415 521.49 270.105 521.177C269.811 520.882 269.603 520.512 269.399 520.153C269.252 519.893 269.231 519.536 269.011 519.337C269.017 519.216 268.889 519.094 268.764 519.177C268.711 519.213 268.693 519.207 268.694 519.207C268.461 519.179 268.286 519.383 268.212 519.574C267.824 520.573 268.688 521.869 269.362 522.517C270.239 523.36 272.395 524.031 273.212 522.784C273.446 522.428 273.205 521.973 272.833 521.852Z" fill="#E0E0E0"/>
<path d="M286.283 564.463C286.288 564.359 286.268 564.251 286.196 564.143C284.801 562.039 282.359 560.482 280.395 558.928C278.447 557.387 276.51 555.805 274.481 554.369C274.487 554.297 274.487 554.224 274.473 554.152C273.941 551.366 269.272 552.919 267.753 553.577C264.321 555.065 261.252 557.213 258.371 559.578C258.009 559.876 258.266 560.351 258.632 560.453C261.04 562.313 263.474 564.137 265.86 566.028C268.192 567.877 270.494 570.296 273.175 571.616C273.406 571.729 273.632 571.727 273.822 571.653C274.019 571.962 274.471 572.087 274.688 571.666C276.721 567.714 281.436 566.086 285.685 565.996C286.556 565.976 286.755 564.933 286.283 564.463Z" fill="#E0E0E0"/>
<path d="M302.904 554.651C302.71 553.93 302.024 553.582 301.43 553.201C300.13 552.367 298.903 551.48 297.624 550.607C294.439 548.428 291.949 545.359 288.6 543.417C287.58 541.301 283.179 543.751 282.081 544.623C279.759 546.47 276.559 550.214 276.961 553.443C276.963 553.456 276.969 553.465 276.971 553.479C276.887 553.565 276.847 553.701 276.923 553.802C278.404 555.793 280.568 557.285 282.535 558.923C283.744 559.929 284.95 560.934 286.201 561.887C286.997 562.494 288.108 563.72 289.218 563.475C289.227 563.473 289.234 563.469 289.243 563.466C289.508 563.797 290.047 563.898 290.282 563.422C291.392 561.164 293.272 559.504 295.36 558.159C296.507 557.42 297.739 556.863 299.063 556.536C300.012 556.302 300.905 556.796 301.788 556.513C302.085 556.418 302.352 556.072 302.223 555.747C302.208 555.708 302.185 555.679 302.167 555.642C302.368 555.622 302.53 555.552 302.715 555.369C302.902 555.183 302.973 554.905 302.904 554.651Z" fill="#E0E0E0"/>
<path d="M305.397 559.096C304.511 558.239 303.616 557.302 302.502 556.747C301.524 556.259 300.662 557.708 301.641 558.22C302.23 558.527 302.739 558.962 303.218 559.428C300.004 560.797 296.711 562.071 293.705 563.831C292.555 564.505 291.399 565.178 290.548 566.223C289.397 567.634 289.462 569.784 286.842 569.141C284.011 568.445 282.943 568.963 280.703 570.865C277.981 573.176 274.868 574.968 272.39 577.548C269.251 574.73 265.584 572.671 262.313 570.015C259.94 568.089 260.113 565.138 258.72 562.624C258.445 562.127 257.695 562.47 257.826 563.001C258.46 565.586 258.306 568.195 260.065 570.32C261.327 571.844 263.248 572.925 264.852 574.031C267.28 575.706 269.674 577.394 271.801 579.448C272.138 579.773 272.75 579.823 273.079 579.448C275.482 576.706 278.635 574.865 281.448 572.595C282.801 571.503 283.851 570.128 285.709 570.685C287.127 571.109 288.02 571.216 289.44 570.729C290.186 570.473 290.666 569.836 291.069 569.201C291.341 568.772 291.508 568.238 291.72 567.777C292.247 566.626 293.587 566.011 294.625 565.403C297.984 563.434 301.699 562.164 305.217 560.5C305.739 560.254 305.786 559.472 305.397 559.096Z" fill="#E0E0E0"/>
<path d="M300.762 575.411C300.563 575.503 300.368 575.623 300.174 575.755C299.351 575.328 298.792 574.635 298.436 573.667C298.247 573.152 298.147 572.618 298.155 572.07C298.155 572.067 298.157 572.063 298.157 572.061C299.051 571.508 299.889 570.893 300.636 570.19C301.147 569.71 300.78 568.943 300.23 568.794C300.202 568.737 300.17 568.682 300.127 568.632C299.354 567.743 298.523 567.356 297.358 567.256C297.333 567.254 297.308 567.261 297.283 567.264C294.993 566.749 292.241 569.326 290.529 570.857C289.62 571.669 288.696 572.446 287.646 573.07C286.374 573.826 284.828 573.647 283.422 573.875C280.382 574.368 278.657 577.187 276.838 579.392C276.465 579.845 276.673 580.394 277.055 580.608C277.443 581.279 278.238 581.74 278.837 582.224C280.321 583.423 281.935 584.459 283.46 585.604C283.558 585.678 283.67 585.714 283.786 585.725C283.878 585.794 283.989 585.843 284.113 585.853C284.342 585.874 284.563 585.848 284.788 585.816C284.796 585.821 284.8 585.83 284.808 585.835C285.696 586.39 287.287 585.399 288.104 585.031C290.152 584.106 292.13 583.03 294.093 581.937C296.014 580.867 297.906 579.744 299.722 578.504C300.569 577.924 301.854 577.226 301.99 576.116C302.072 575.437 301.251 575.185 300.762 575.411ZM296.31 569.017C295.916 569.18 295.518 569.33 295.118 569.474C295.089 569.443 295.059 569.415 295.027 569.392C295.45 569.163 295.876 569.022 296.31 569.017ZM298.088 577.396C296.335 578.552 294.509 579.603 292.681 580.635C291.015 581.575 289.322 582.47 287.615 583.332C286.984 583.651 285.787 583.982 285.067 584.507C284.947 584.539 284.828 584.573 284.709 584.612C284.529 583.022 284.259 581.351 284.533 579.768C284.897 577.662 287.332 576.757 289.062 576.069C291.595 575.06 294.452 574.092 296.99 572.73C297.082 573.275 297.243 573.786 297.384 574.111C297.768 574.995 298.512 575.886 299.421 576.334C298.972 576.709 298.53 577.105 298.088 577.396Z" fill="#E0E0E0"/>
</g>
<path d="M21 121.689C21 123.718 22.6601 125.378 24.6892 125.378H53.5878H57.277V129.068C57.277 129.068 57.277 151.818 57.277 159.811C57.277 160.426 56.6622 161.041 56.0473 161.041C48.0541 161.037 24.6892 161.041 24.6892 161.041C22.6601 161.041 21 159.38 21 157.351V129.068V121.689Z" fill="#E0E0E0"/>
<path d="M28.3782 125.378H27.1484V161.041H28.3782V125.378Z" fill="#1C2E0E" fill-opacity="0.054902"/>
<path d="M32.0676 132.757H30.8379V161.041H32.0676V132.757Z" fill="#1C2E0E" fill-opacity="0.054902"/>
<path d="M57.2771 127.838V149.358C57.2771 150.711 56.1703 151.818 54.8176 151.818H33.2974C31.9446 151.818 30.8379 150.711 30.8379 149.358V132.142C30.8379 129.682 32.6825 127.838 35.1419 127.838H57.2771Z" fill="#1C2E0E" fill-opacity="0.054902"/>
<path d="M57.277 119.23C57.277 118.615 56.6622 118 56.0473 118C55.4324 118 53.5878 118 53.5878 118H24.6892C22.6601 118 21 119.66 21 121.689C21 123.718 22.6601 125.378 24.6892 125.378H53.5878H57.277C57.277 125.378 57.277 120.767 57.277 119.23Z" fill="#E0E0E0"/>
<path d="M28.3782 118H27.1484V125.378H28.3782V118Z" fill="#E0E0E0"/>
<path d="M24.6892 125.378H27.1486V118H24.6892C22.6601 118 21 119.66 21 121.689C21 123.718 22.6601 125.378 24.6892 125.378Z" fill="#E0E0E0"/>
<path d="M24.689 124.149C23.3559 124.149 22.2295 123.022 22.2295 121.689C22.2295 120.356 23.3559 119.23 24.689 119.23H57.2768V124.149H24.689Z" fill="#F5F5F5"/>
<path d="M24.6892 161.041H27.1486V125.378H24.6892C22.6601 125.378 21 123.718 21 121.689V129.068V157.351C21 159.38 22.6601 161.041 24.6892 161.041Z" fill="#D4D4D4"/>
<path d="M48.6689 141.363H36.3716V142.593H48.6689V141.363Z" fill="#F5F5F5"/>
<path d="M49.2839 141.363H33.2974V142.593H49.2839V141.363Z" fill="#F5F5F5"/>
<path d="M32.0674 132.757C32.0674 134.786 33.7275 136.446 35.7566 136.446H62.8106H66.4998V140.135C66.4998 140.135 66.4998 162.885 66.4998 170.878C66.4998 171.493 65.885 172.108 65.2701 172.108C57.2768 172.104 35.7566 172.108 35.7566 172.108C33.7275 172.108 32.0674 170.448 32.0674 168.419V140.135V132.757Z" fill="#E0E0E0"/>
<path d="M39.446 136.446H38.2163V172.108H39.446V136.446Z" fill="#1C2E0E" fill-opacity="0.054902"/>
<path d="M66.4998 130.297C66.4998 129.682 65.885 129.068 65.2701 129.068C64.6552 129.068 62.8106 129.068 62.8106 129.068H35.7566C33.7275 129.068 32.0674 130.728 32.0674 132.757C32.0674 134.786 33.7275 136.446 35.7566 136.446H62.8106H66.4998C66.4998 136.446 66.4998 131.834 66.4998 130.297Z" fill="#E0E0E0"/>
<path d="M39.446 129.068H38.2163V136.446H39.446V129.068Z" fill="#E0E0E0"/>
<path d="M35.7566 136.446H38.216V129.068H35.7566C33.7275 129.068 32.0674 130.728 32.0674 132.757C32.0674 134.786 33.7275 136.446 35.7566 136.446Z" fill="#E0E0E0"/>
<path d="M35.7568 135.216C34.4238 135.216 33.2974 134.09 33.2974 132.757C33.2974 131.424 34.4238 130.297 35.7568 130.297H66.5001V135.216H35.7568Z" fill="#F5F5F5"/>
<path d="M35.7566 172.108H38.216V136.446H35.7566C33.7275 136.446 32.0674 134.786 32.0674 132.757V140.135V168.419C32.0674 170.448 33.7275 172.108 35.7566 172.108Z" fill="#D4D4D4"/>
<path d="M57.2768 149.971H47.439V151.201H57.2768V149.971Z" fill="#F5F5F5"/>
<path d="M60.3512 152.431H44.3647V153.66H60.3512V152.431Z" fill="#F5F5F5"/>
<path d="M265.655 53.1347C263.538 52.2815 261.097 51.8519 258.401 51.8519C251.783 51.8519 245.488 54.3879 243.593 55.2233V43.1096L244.476 44.0797V25.8844C247.818 23.0752 251.868 21.5667 256.552 21.3846L257.461 19.8543C251.959 19.8602 247.208 21.5429 243.346 24.8569C239.475 21.535 234.718 19.8523 229.195 19.8523C224.038 19.8523 220.171 21.3549 220.011 21.4182L219.536 21.6043V24.651C217.972 24.9401 217 25.4627 217 26.316C217 30.7584 217 57.7118 217 57.7118H240.123C240.924 58.4264 242.092 58.8837 243.401 58.8837C244.71 58.8837 245.88 58.4284 246.677 57.7118H269.222C269.222 57.7118 269.222 28.1788 269.222 26.3476L265.655 33.7299V53.1347ZM243.094 55.2391C241.174 54.4512 234.562 51.9331 227.942 51.9331C225.327 51.9331 223.008 52.3389 221.033 53.1288V22.6417C222.185 22.2576 225.327 21.3509 229.193 21.3509C234.277 21.3509 238.646 22.8871 242.215 25.8864V44.0836L243.094 43.1136V55.2391Z" fill="#E0E0E0"/>
<path d="M223.996 26.6485L224.307 27.8225C232.115 25.7517 239.143 29.5824 239.212 29.622L239.802 28.5609C239.501 28.3966 232.289 24.4511 223.996 26.6485Z" fill="#E0E0E0"/>
<path d="M223.996 30.0853L224.307 31.2572C232.115 29.1845 239.143 33.0211 239.212 33.0568L239.802 31.9976C239.501 31.8294 232.289 27.8858 223.996 30.0853Z" fill="#E0E0E0"/>
<path d="M223.996 33.3122L224.307 34.4861C232.115 32.4173 239.143 36.25 239.212 36.2876L239.802 35.2285C239.501 35.0563 232.289 31.1147 223.996 33.3122Z" fill="#E0E0E0"/>
<path d="M223.996 36.8518L224.307 38.0238C232.115 35.953 239.143 39.7877 239.212 39.8233L239.802 38.7642C239.501 38.5979 232.289 34.6524 223.996 36.8518Z" fill="#E0E0E0"/>
<path d="M223.996 40.1322L224.307 41.3041C232.115 39.2354 239.143 43.0661 239.212 43.1017L239.802 42.0426C239.501 41.8763 232.289 37.9347 223.996 40.1322Z" fill="#E0E0E0"/>
<path d="M223.996 43.4996L224.307 44.6716C232.115 42.5988 239.143 46.4335 239.212 46.4731L239.802 45.41C239.501 45.2437 232.289 41.3022 223.996 43.4996Z" fill="#E0E0E0"/>
<path d="M223.996 46.873L224.307 48.047C232.115 45.9742 239.143 49.8069 239.212 49.8445L239.802 48.7893C239.501 48.6191 232.289 44.6756 223.996 46.873Z" fill="#E0E0E0"/>
<path d="M269.161 0L265.5 7.52478L265.518 7.53072L254.2 30.8395L253.212 43.0997L262.901 35.278L274.332 11.8088L274.348 11.8187L278 4.29393L269.161 0ZM262.244 34.6326L256.714 39.0928L254.523 38.0337L255.063 31.1622L255.574 30.0991L256.59 33.6962L258.833 32.253L259.272 34.9949L262.618 33.8645L262.244 34.6326ZM274.203 7.92863L268.652 5.23428L270.004 2.45085L275.553 5.14718L274.203 7.92863Z" fill="#E0E0E0"/>
<path d="M37.488 644.94C35.8575 644.282 33.9767 643.951 31.8992 643.951C26.8 643.951 21.9495 645.905 20.4898 646.549V637.216L21.1701 637.963V623.944C23.7448 621.779 26.8656 620.617 30.4746 620.477L31.1747 619.298C26.9358 619.302 23.275 620.599 20.2991 623.152C17.3171 620.593 13.6517 619.296 9.39603 619.296C5.42255 619.296 2.44358 620.454 2.32003 620.503L1.95395 620.646V622.993C0.748937 623.216 0 623.619 0 624.276C0 627.699 0 648.466 0 648.466H17.8159C18.4336 649.017 19.3336 649.369 20.3418 649.369C21.35 649.369 22.2515 649.019 22.8662 648.466H40.2367C40.2367 648.466 40.2367 625.712 40.2367 624.301L37.488 629.989V644.94ZM20.1054 646.561C18.6258 645.954 13.5312 644.014 8.4305 644.014C6.41554 644.014 4.62938 644.327 3.1071 644.935V621.445C3.99484 621.149 6.41554 620.451 9.39451 620.451C13.3116 620.451 16.678 621.634 19.4281 623.945V637.966L20.1054 637.219V646.561Z" fill="#E0E0E0"/>
<path d="M5.39062 624.532L5.6301 625.437C11.646 623.842 17.0609 626.793 17.1143 626.824L17.5689 626.006C17.337 625.879 11.7802 622.839 5.39062 624.532Z" fill="#E0E0E0"/>
<path d="M5.39062 627.18L5.6301 628.083C11.646 626.486 17.0609 629.443 17.1143 629.47L17.5689 628.654C17.337 628.524 11.7802 625.486 5.39062 627.18Z" fill="#E0E0E0"/>
<path d="M5.39062 629.667L5.6301 630.571C11.646 628.977 17.0609 631.93 17.1143 631.959L17.5689 631.143C17.337 631.011 11.7802 627.974 5.39062 629.667Z" fill="#E0E0E0"/>
<path d="M5.39062 632.394L5.6301 633.297C11.646 631.702 17.0609 634.656 17.1143 634.684L17.5689 633.867C17.337 633.739 11.7802 630.699 5.39062 632.394Z" fill="#E0E0E0"/>
<path d="M5.39062 634.922L5.6301 635.825C11.646 634.231 17.0609 637.182 17.1143 637.21L17.5689 636.393C17.337 636.265 11.7802 633.228 5.39062 634.922Z" fill="#E0E0E0"/>
<path d="M5.39062 637.516L5.6301 638.419C11.646 636.822 17.0609 639.777 17.1143 639.807L17.5689 638.988C17.337 638.86 11.7802 635.823 5.39062 637.516Z" fill="#E0E0E0"/>
<path d="M5.39062 640.115L5.6301 641.02C11.646 639.423 17.0609 642.376 17.1143 642.405L17.5689 641.592C17.337 641.461 11.7802 638.422 5.39062 640.115Z" fill="#E0E0E0"/>
<path d="M40.1894 604L37.3691 609.798L37.3828 609.802L28.6625 627.762L27.9014 637.208L35.3663 631.181L44.1736 613.099L44.1858 613.106L47 607.308L40.1894 604ZM34.8599 630.684L30.5997 634.121L28.9111 633.305L29.3275 628.01L29.7211 627.191L30.5036 629.963L32.2318 628.851L32.5704 630.963L35.1482 630.092L34.8599 630.684ZM44.0744 610.109L39.7974 608.033L40.8392 605.888L45.1147 607.966L44.0744 610.109Z" fill="#E0E0E0"/>
<defs>
<clipPath id="clip0_0_1">
<rect width="69" height="69" fill="white" transform="translate(244 517)"/>
</clipPath>
</defs>
</svg>
