<svg width="134" height="134" viewBox="0 0 134 134" fill="none" xmlns="http://www.w3.org/2000/svg">
<rect width="134" height="134" rx="23" fill="url(#paint0_linear_3_26)"/>
<path d="M0 92H134V111C134 123.703 123.703 134 111 134H23C10.2974 134 0 123.703 0 111V92Z" fill="#FFB247"/>
<path d="M20.3156 105H34.0656V109.3H33.3656L32.5656 106.525C32.5156 106.308 32.4573 106.158 32.3906 106.075C32.3406 105.975 32.2323 105.917 32.0656 105.9C31.899 105.883 31.6156 105.875 31.2156 105.875H28.6906V119.9C28.6906 120.467 28.7156 120.808 28.7656 120.925C28.8156 121.025 28.974 121.092 29.2406 121.125L30.6156 121.3V122H23.7656V121.3L25.1406 121.125C25.4073 121.092 25.5656 121.025 25.6156 120.925C25.6656 120.808 25.6906 120.467 25.6906 119.9V105.875H23.1656C22.7823 105.875 22.499 105.883 22.3156 105.9C22.149 105.917 22.0406 105.975 21.9906 106.075C21.9406 106.158 21.8823 106.308 21.8156 106.525L21.0156 109.3H20.3156V105ZM45.8961 105.7V105H50.7461V105.7L49.3711 105.875C49.1044 105.908 48.9461 105.983 48.8961 106.1C48.8461 106.2 48.8211 106.533 48.8211 107.1V116.225C48.8211 118.225 48.3961 119.733 47.5461 120.75C46.7128 121.75 45.4294 122.25 43.6961 122.25C41.6794 122.25 40.0544 121.7 38.8211 120.6C37.5878 119.5 36.9711 117.917 36.9711 115.85V107.1C36.9711 106.533 36.9461 106.2 36.8961 106.1C36.8461 105.983 36.6878 105.908 36.4211 105.875L35.0461 105.7V105H41.8961V105.7L40.5211 105.875C40.2544 105.908 40.0961 105.983 40.0461 106.1C39.9961 106.2 39.9711 106.533 39.9711 107.1V116.025C39.9711 117.892 40.3128 119.242 40.9961 120.075C41.6794 120.908 42.6544 121.325 43.9211 121.325C45.1544 121.325 46.1128 120.933 46.7961 120.15C47.4794 119.35 47.8211 118.058 47.8211 116.275V107.1C47.8211 106.533 47.7961 106.2 47.7461 106.1C47.6961 105.983 47.5378 105.908 47.2711 105.875L45.8961 105.7ZM51.7609 105H65.5109V109.3H64.8109L64.0109 106.525C63.9609 106.308 63.9026 106.158 63.8359 106.075C63.7859 105.975 63.6776 105.917 63.5109 105.9C63.3443 105.883 63.0609 105.875 62.6609 105.875H60.1359V119.9C60.1359 120.467 60.1609 120.808 60.2109 120.925C60.2609 121.025 60.4193 121.092 60.6859 121.125L62.0609 121.3V122H55.2109V121.3L56.5859 121.125C56.8526 121.092 57.0109 121.025 57.0609 120.925C57.1109 120.808 57.1359 120.467 57.1359 119.9V105.875H54.6109C54.2276 105.875 53.9443 105.883 53.7609 105.9C53.5943 105.917 53.4859 105.975 53.4359 106.075C53.3859 106.158 53.3276 106.308 53.2609 106.525L52.4609 109.3H51.7609V105ZM81.0164 112.7V114.275C81.0164 116.842 80.4414 118.817 79.2914 120.2C78.1581 121.567 76.4747 122.25 74.2414 122.25C72.0081 122.25 70.3164 121.567 69.1664 120.2C68.0331 118.817 67.4664 116.842 67.4664 114.275V112.7C67.4664 110.133 68.0331 108.167 69.1664 106.8C70.3164 105.433 72.0081 104.75 74.2414 104.75C76.4747 104.75 78.1581 105.433 79.2914 106.8C80.4414 108.167 81.0164 110.133 81.0164 112.7ZM77.8164 111.45C77.8164 109.983 77.6914 108.833 77.4414 108C77.1914 107.15 76.7997 106.542 76.2664 106.175C75.7497 105.808 75.0747 105.625 74.2414 105.625C73.4247 105.625 72.7497 105.808 72.2164 106.175C71.6831 106.542 71.2914 107.15 71.0414 108C70.7914 108.833 70.6664 109.983 70.6664 111.45V115.525C70.6664 116.975 70.7914 118.125 71.0414 118.975C71.2914 119.825 71.6831 120.442 72.2164 120.825C72.7497 121.192 73.4247 121.375 74.2414 121.375C75.0747 121.375 75.7497 121.192 76.2664 120.825C76.7997 120.442 77.1914 119.825 77.4414 118.975C77.6914 118.125 77.8164 116.975 77.8164 115.525V111.45ZM83.7371 105.7V105H91.2871C93.0371 105 94.3871 105.392 95.3371 106.175C96.2871 106.958 96.7621 108.008 96.7621 109.325V109.9C96.7621 110.9 96.4871 111.75 95.9371 112.45C95.3871 113.15 94.5954 113.65 93.5621 113.95L96.6871 119.9C96.8871 120.267 97.0371 120.533 97.1371 120.7C97.2371 120.867 97.3288 120.975 97.4121 121.025C97.5121 121.058 97.6454 121.092 97.8121 121.125L98.9371 121.3V122H94.2621L90.4871 114.25H88.6621V119.9C88.6621 120.467 88.6871 120.808 88.7371 120.925C88.7871 121.025 88.9454 121.092 89.2121 121.125L90.5871 121.3V122H83.7371V121.3L85.1121 121.125C85.3788 121.092 85.5371 121.025 85.5871 120.925C85.6371 120.808 85.6621 120.467 85.6621 119.9V107.1C85.6621 106.533 85.6371 106.2 85.5871 106.1C85.5371 105.983 85.3788 105.908 85.1121 105.875L83.7371 105.7ZM91.2871 105.875H88.6621V113.375H91.2871C92.0204 113.375 92.5788 113.15 92.9621 112.7C93.3621 112.233 93.5621 111.383 93.5621 110.15V109.075C93.5621 107.842 93.3621 107 92.9621 106.55C92.5788 106.1 92.0204 105.875 91.2871 105.875ZM105.821 121.375C106.821 121.375 107.646 121.142 108.296 120.675C108.963 120.192 109.296 119.442 109.296 118.425C109.296 117.675 109.071 117.05 108.621 116.55C108.188 116.05 107.405 115.633 106.271 115.3L103.946 114.6C102.78 114.25 101.88 113.65 101.246 112.8C100.63 111.933 100.321 110.858 100.321 109.575C100.321 108.725 100.513 107.933 100.896 107.2C101.296 106.467 101.896 105.875 102.696 105.425C103.513 104.975 104.538 104.75 105.771 104.75C107.121 104.75 108.213 105 109.046 105.5C109.88 105.983 110.463 106.617 110.796 107.4C111.13 108.183 111.213 109.025 111.046 109.925L108.171 110.45C108.438 108.9 108.321 107.708 107.821 106.875C107.338 106.042 106.546 105.625 105.446 105.625C104.596 105.625 103.913 105.875 103.396 106.375C102.896 106.875 102.646 107.592 102.646 108.525C102.646 109.292 102.863 109.967 103.296 110.55C103.746 111.133 104.48 111.583 105.496 111.9L107.821 112.6C109.088 112.967 110.038 113.525 110.671 114.275C111.305 115.008 111.621 116.033 111.621 117.35C111.621 118.283 111.405 119.125 110.971 119.875C110.555 120.608 109.913 121.192 109.046 121.625C108.196 122.042 107.13 122.25 105.846 122.25C104.913 122.25 104.03 122.117 103.196 121.85C102.363 121.567 101.663 121.108 101.096 120.475C100.546 119.842 100.196 118.983 100.046 117.9L101.721 117.3C101.805 118.367 102.038 119.2 102.421 119.8C102.821 120.383 103.313 120.792 103.896 121.025C104.496 121.258 105.138 121.375 105.821 121.375Z" fill="#0092DF"/>
<path d="M67 80C73.8932 79.991 80.5019 76.8274 85.3762 71.2033C90.2504 65.5791 92.9922 57.9537 93 50V21.7647C93 21.2967 92.8389 20.8478 92.552 20.5169C92.2652 20.1859 91.8762 20 91.4706 20C91.065 20 90.6759 20.1859 90.3891 20.5169C90.1023 20.8478 89.9412 21.2967 89.9412 21.7647V50C89.9412 57.0204 87.5242 63.7533 83.2219 68.7175C78.9196 73.6817 73.0844 76.4706 67 76.4706C60.9156 76.4706 55.0804 73.6817 50.7781 68.7175C46.4758 63.7533 44.0588 57.0204 44.0588 50V21.7647C44.0588 21.2967 43.8977 20.8478 43.6109 20.5169C43.3241 20.1859 42.935 20 42.5294 20C42.1238 20 41.7348 20.1859 41.448 20.5169C41.1611 20.8478 41 21.2967 41 21.7647V50C41.0078 57.9537 43.7496 65.5791 48.6238 71.2033C53.4981 76.8274 60.1068 79.991 67 80Z" fill="#FFB247"/>
<defs>
<linearGradient id="paint0_linear_3_26" x1="67" y1="0" x2="67" y2="134" gradientUnits="userSpaceOnUse">
<stop stop-color="#01D1A0"/>
<stop offset="1" stop-color="#0092DF"/>
</linearGradient>
</defs>
</svg>
